<?xml version="1.0" encoding="UTF-8"?>
<svg xmlns="http://www.w3.org/2000/svg" xmlns:xlink="http://www.w3.org/1999/xlink" width="500pt" height="500pt" viewBox="0 0 500 500" version="1.1">
<g id="surface7131660">
<path style=" stroke:none;fill-rule:nonzero;fill:rgb(13.333333%,33.72549%,6.27451%);fill-opacity:1;" d="M 428.75 86.25 C 428.4375 86.328125 428.125 86.445312 427.8125 86.5625 C 425.195312 87.226562 422.929688 88.90625 421.5625 91.25 L 217.1875 408.125 L 76.5625 281.25 C 74.101562 278.125 70 276.757812 66.132812 277.773438 C 62.265625 278.789062 59.414062 282.03125 58.828125 285.976562 C 58.242188 289.921875 60.039062 293.828125 63.4375 295.9375 L 212.5 430.9375 C 214.6875 432.851562 217.617188 433.710938 220.507812 433.28125 C 223.398438 432.851562 225.9375 431.210938 227.5 428.75 L 438.4375 101.875 C 440.742188 98.59375 440.859375 94.257812 438.75 90.859375 C 436.640625 87.460938 432.695312 85.664062 428.75 86.25 Z M 428.75 86.25 "/>
</g>
</svg>
